<?xml version="1.0" encoding="UTF-8"?>
<svg id="Layer_1" data-name="Layer 1" xmlns="http://www.w3.org/2000/svg" viewBox="0 0 92 92">
  <defs>
    <style>
      .cls-1 {
        fill: #fff;
      }
    </style>
  </defs>
  <path class="cls-1" d="m25.58,41.78c1.96-9.48,10.37-16.63,20.42-16.63,6.31,0,12.13,2.8,16.04,7.52h10.04c-5.04-9.84-15.03-15.96-26.08-15.96-14.72,0-26.93,10.91-28.98,25.07h-8.35C10.78,23.05,26.72,8.44,46,8.44c15.64,0,29.65,9.82,35.13,24.23h8.91C84.21,13.39,66.22,0,46,0,20.64,0,0,20.64,0,46v4.22h17.02c2.05,14.16,14.26,25.07,28.98,25.07,10.99,0,20.94-6.05,26-15.8h-10.09c-3.91,4.63-9.67,7.36-15.91,7.36-10.05,0-18.46-7.15-20.42-16.63h57.74c-2.1,18.73-18.04,33.34-37.32,33.34-15.59,0-29.55-9.74-35.07-24.08H2.01c5.88,19.19,23.83,32.52,43.99,32.52,25.36,0,46-20.64,46-46v-4.22H25.58Z"/>
</svg>